<mxfile host="app.diagrams.net" modified="2023-06-04T02:45:46.780Z" agent="Mozilla/5.0 (Windows NT 10.0; Win64; x64) AppleWebKit/537.36 (KHTML, like Gecko) Chrome/112.0.0.0 Whale/3.20.182.14 Safari/537.36" etag="RblGJ-mId539My9iF-7u" version="21.3.7" type="device">
  <diagram name="Page-1" id="pqZHBYLue5E-2CGR6Sth">
    <mxGraphModel dx="1399" dy="776" grid="1" gridSize="10" guides="1" tooltips="1" connect="1" arrows="1" fold="1" page="1" pageScale="1" pageWidth="850" pageHeight="1100" math="0" shadow="0">
      <root>
        <mxCell id="0" />
        <mxCell id="1" parent="0" />
        <mxCell id="rPPE6D7CYE3MI8lcNoz3-1" value="회원" style="shape=umlActor;verticalLabelPosition=bottom;verticalAlign=top;html=1;outlineConnect=0;" vertex="1" parent="1">
          <mxGeometry x="80" y="270" width="30" height="60" as="geometry" />
        </mxCell>
        <mxCell id="rPPE6D7CYE3MI8lcNoz3-3" value="회원가입" style="ellipse;whiteSpace=wrap;html=1;" vertex="1" parent="1">
          <mxGeometry x="160" y="515" width="70" height="30" as="geometry" />
        </mxCell>
        <mxCell id="rPPE6D7CYE3MI8lcNoz3-4" value="&lt;font style=&quot;font-size: 10px;&quot;&gt;비밀번호 확인&lt;/font&gt;" style="ellipse;whiteSpace=wrap;html=1;" vertex="1" parent="1">
          <mxGeometry x="310" y="490" width="90" height="30" as="geometry" />
        </mxCell>
        <mxCell id="rPPE6D7CYE3MI8lcNoz3-5" value="&lt;font style=&quot;font-size: 10px;&quot;&gt;로그인 에러 출력&lt;/font&gt;" style="ellipse;whiteSpace=wrap;html=1;" vertex="1" parent="1">
          <mxGeometry x="310" y="540" width="90" height="30" as="geometry" />
        </mxCell>
        <mxCell id="rPPE6D7CYE3MI8lcNoz3-7" value="" style="endArrow=openThin;dashed=1;endFill=0;endSize=12;html=1;rounded=0;exitX=1;exitY=0.5;exitDx=0;exitDy=0;entryX=0;entryY=0.5;entryDx=0;entryDy=0;" edge="1" parent="1" source="rPPE6D7CYE3MI8lcNoz3-3" target="rPPE6D7CYE3MI8lcNoz3-4">
          <mxGeometry width="160" relative="1" as="geometry">
            <mxPoint x="220" y="555" as="sourcePoint" />
            <mxPoint x="380" y="555" as="targetPoint" />
          </mxGeometry>
        </mxCell>
        <mxCell id="rPPE6D7CYE3MI8lcNoz3-8" value="" style="endArrow=openThin;dashed=1;endFill=0;endSize=12;html=1;rounded=0;exitX=0;exitY=0.333;exitDx=0;exitDy=0;entryX=1;entryY=0.5;entryDx=0;entryDy=0;exitPerimeter=0;" edge="1" parent="1" source="rPPE6D7CYE3MI8lcNoz3-5" target="rPPE6D7CYE3MI8lcNoz3-3">
          <mxGeometry width="160" relative="1" as="geometry">
            <mxPoint x="240" y="540" as="sourcePoint" />
            <mxPoint x="280" y="520" as="targetPoint" />
          </mxGeometry>
        </mxCell>
        <mxCell id="rPPE6D7CYE3MI8lcNoz3-9" value="&lt;font style=&quot;font-size: 8px;&quot;&gt;&amp;lt;&amp;lt;include&amp;gt;&amp;gt;&lt;/font&gt;" style="text;html=1;align=center;verticalAlign=middle;resizable=0;points=[];autosize=1;strokeColor=none;fillColor=none;" vertex="1" parent="1">
          <mxGeometry x="230" y="490" width="70" height="30" as="geometry" />
        </mxCell>
        <mxCell id="rPPE6D7CYE3MI8lcNoz3-10" value="&lt;font style=&quot;font-size: 8px;&quot;&gt;&amp;lt;&amp;lt;extend&amp;gt;&amp;gt;&lt;/font&gt;" style="text;html=1;align=center;verticalAlign=middle;resizable=0;points=[];autosize=1;strokeColor=none;fillColor=none;" vertex="1" parent="1">
          <mxGeometry x="230" y="535" width="70" height="30" as="geometry" />
        </mxCell>
        <mxCell id="rPPE6D7CYE3MI8lcNoz3-11" value="게시글 작성" style="ellipse;whiteSpace=wrap;html=1;" vertex="1" parent="1">
          <mxGeometry x="160" y="220" width="70" height="30" as="geometry" />
        </mxCell>
        <mxCell id="rPPE6D7CYE3MI8lcNoz3-12" value="게시글 수정" style="ellipse;whiteSpace=wrap;html=1;" vertex="1" parent="1">
          <mxGeometry x="160" y="260" width="70" height="30" as="geometry" />
        </mxCell>
        <mxCell id="rPPE6D7CYE3MI8lcNoz3-13" value="게시글 삭제" style="ellipse;whiteSpace=wrap;html=1;" vertex="1" parent="1">
          <mxGeometry x="160" y="300" width="70" height="30" as="geometry" />
        </mxCell>
        <mxCell id="rPPE6D7CYE3MI8lcNoz3-14" value="&lt;font style=&quot;font-size: 10px;&quot;&gt;파일 첨부&lt;/font&gt;" style="ellipse;whiteSpace=wrap;html=1;" vertex="1" parent="1">
          <mxGeometry x="280" y="220" width="60" height="30" as="geometry" />
        </mxCell>
        <mxCell id="rPPE6D7CYE3MI8lcNoz3-15" value="" style="endArrow=openThin;dashed=1;endFill=0;endSize=12;html=1;rounded=0;exitX=0;exitY=0.5;exitDx=0;exitDy=0;entryX=1;entryY=0.5;entryDx=0;entryDy=0;" edge="1" parent="1" source="rPPE6D7CYE3MI8lcNoz3-14" target="rPPE6D7CYE3MI8lcNoz3-11">
          <mxGeometry width="160" relative="1" as="geometry">
            <mxPoint x="240" y="240" as="sourcePoint" />
            <mxPoint x="230" y="230" as="targetPoint" />
          </mxGeometry>
        </mxCell>
        <mxCell id="rPPE6D7CYE3MI8lcNoz3-16" value="&lt;font style=&quot;font-size: 8px;&quot;&gt;&amp;lt;&amp;lt;extend&amp;gt;&amp;gt;&lt;/font&gt;" style="text;html=1;align=center;verticalAlign=middle;resizable=0;points=[];autosize=1;strokeColor=none;fillColor=none;" vertex="1" parent="1">
          <mxGeometry x="220" y="210" width="70" height="30" as="geometry" />
        </mxCell>
        <mxCell id="rPPE6D7CYE3MI8lcNoz3-17" value="댓글 등록" style="ellipse;whiteSpace=wrap;html=1;" vertex="1" parent="1">
          <mxGeometry x="160" y="340" width="70" height="30" as="geometry" />
        </mxCell>
        <mxCell id="rPPE6D7CYE3MI8lcNoz3-19" value="비회원" style="shape=umlActor;verticalLabelPosition=bottom;verticalAlign=top;html=1;outlineConnect=0;" vertex="1" parent="1">
          <mxGeometry x="80" y="485" width="30" height="60" as="geometry" />
        </mxCell>
        <mxCell id="rPPE6D7CYE3MI8lcNoz3-20" value="" style="rounded=0;whiteSpace=wrap;html=1;fillColor=none;" vertex="1" parent="1">
          <mxGeometry x="140" y="200" width="460" height="400" as="geometry" />
        </mxCell>
        <mxCell id="rPPE6D7CYE3MI8lcNoz3-23" value="관리자" style="shape=umlActor;verticalLabelPosition=bottom;verticalAlign=top;html=1;outlineConnect=0;" vertex="1" parent="1">
          <mxGeometry x="650" y="350" width="30" height="60" as="geometry" />
        </mxCell>
        <mxCell id="rPPE6D7CYE3MI8lcNoz3-25" value="회원 관리" style="ellipse;whiteSpace=wrap;html=1;" vertex="1" parent="1">
          <mxGeometry x="510" y="350" width="70" height="30" as="geometry" />
        </mxCell>
        <mxCell id="rPPE6D7CYE3MI8lcNoz3-27" value="" style="endArrow=none;html=1;rounded=0;exitX=1;exitY=0.5;exitDx=0;exitDy=0;" edge="1" parent="1" source="rPPE6D7CYE3MI8lcNoz3-25">
          <mxGeometry width="50" height="50" relative="1" as="geometry">
            <mxPoint x="600" y="435" as="sourcePoint" />
            <mxPoint x="650" y="385" as="targetPoint" />
          </mxGeometry>
        </mxCell>
        <mxCell id="rPPE6D7CYE3MI8lcNoz3-28" value="" style="endArrow=none;html=1;rounded=0;exitX=1;exitY=0.5;exitDx=0;exitDy=0;entryX=0;entryY=0.5;entryDx=0;entryDy=0;" edge="1" parent="1" target="rPPE6D7CYE3MI8lcNoz3-11">
          <mxGeometry width="50" height="50" relative="1" as="geometry">
            <mxPoint x="110" y="300" as="sourcePoint" />
            <mxPoint x="130" y="160" as="targetPoint" />
          </mxGeometry>
        </mxCell>
        <mxCell id="rPPE6D7CYE3MI8lcNoz3-29" value="" style="endArrow=none;html=1;rounded=0;entryX=0;entryY=0.5;entryDx=0;entryDy=0;" edge="1" parent="1" target="rPPE6D7CYE3MI8lcNoz3-12">
          <mxGeometry width="50" height="50" relative="1" as="geometry">
            <mxPoint x="110" y="300" as="sourcePoint" />
            <mxPoint x="170" y="245" as="targetPoint" />
          </mxGeometry>
        </mxCell>
        <mxCell id="rPPE6D7CYE3MI8lcNoz3-30" value="" style="endArrow=none;html=1;rounded=0;entryX=0;entryY=0.5;entryDx=0;entryDy=0;" edge="1" parent="1" target="rPPE6D7CYE3MI8lcNoz3-13">
          <mxGeometry width="50" height="50" relative="1" as="geometry">
            <mxPoint x="110" y="300" as="sourcePoint" />
            <mxPoint x="180" y="255" as="targetPoint" />
          </mxGeometry>
        </mxCell>
        <mxCell id="rPPE6D7CYE3MI8lcNoz3-31" value="" style="endArrow=none;html=1;rounded=0;entryX=0;entryY=0.5;entryDx=0;entryDy=0;" edge="1" parent="1" target="rPPE6D7CYE3MI8lcNoz3-17">
          <mxGeometry width="50" height="50" relative="1" as="geometry">
            <mxPoint x="110" y="300" as="sourcePoint" />
            <mxPoint x="190" y="265" as="targetPoint" />
          </mxGeometry>
        </mxCell>
        <mxCell id="rPPE6D7CYE3MI8lcNoz3-32" value="" style="endArrow=none;html=1;rounded=0;exitX=1;exitY=0.5;exitDx=0;exitDy=0;entryX=0;entryY=0.5;entryDx=0;entryDy=0;" edge="1" parent="1" target="rPPE6D7CYE3MI8lcNoz3-3">
          <mxGeometry width="50" height="50" relative="1" as="geometry">
            <mxPoint x="110" y="520" as="sourcePoint" />
            <mxPoint x="160" y="455" as="targetPoint" />
          </mxGeometry>
        </mxCell>
        <mxCell id="rPPE6D7CYE3MI8lcNoz3-33" value="myground" style="text;html=1;strokeColor=none;fillColor=none;align=center;verticalAlign=middle;whiteSpace=wrap;rounded=0;" vertex="1" parent="1">
          <mxGeometry x="540" y="200" width="60" height="20" as="geometry" />
        </mxCell>
      </root>
    </mxGraphModel>
  </diagram>
</mxfile>
